<svg width="256" height="256" viewBox="0 0 256 256" fill="none" xmlns="http://www.w3.org/2000/svg">
  <defs>
    <clipPath id="circle-clip">
      <circle cx="128" cy="128" r="128"/>
    </clipPath>
    <filter id="pip-glow" x="-50%" y="-50%" width="200%" height="200%">
      <feGaussianBlur stdDeviation="4" result="blur"/>
      <feComposite in="SourceGraphic" in2="blur" operator="over"/>
    </filter>
    <filter id="pip-cheek" x="-100%" y="-100%" width="300%" height="300%">
      <feGaussianBlur stdDeviation="2"/>
    </filter>
    <radialGradient id="pip-bg-glow" cx="50%" cy="40%" r="45%">
      <stop offset="0%" stop-color="#10b981" stop-opacity="0.15"/>
      <stop offset="100%" stop-color="#10b981" stop-opacity="0"/>
    </radialGradient>
    <radialGradient id="pip-body" cx="50%" cy="30%" r="70%">
      <stop offset="0%" stop-color="#34d399"/>
      <stop offset="60%" stop-color="#10b981"/>
      <stop offset="100%" stop-color="#059669"/>
    </radialGradient>
    <radialGradient id="pip-inner" cx="50%" cy="35%" r="50%">
      <stop offset="0%" stop-color="white" stop-opacity="0.8"/>
      <stop offset="100%" stop-color="white" stop-opacity="0"/>
    </radialGradient>
  </defs>

  <!-- Clipped to circle -->
  <g clip-path="url(#circle-clip)">
    <!-- Solid dark background -->
    <rect width="256" height="256" fill="#09090b"/>
    <!-- Subtle glow behind Pip -->
    <rect width="256" height="256" fill="url(#pip-bg-glow)"/>

    <!-- Pip centered and sized to fit nicely -->
    <g transform="translate(128, 135) scale(2.8)">
      <!-- Body glow (contained) -->
      <ellipse cx="0" cy="4" rx="18" ry="20" fill="#10b981" opacity="0.2" filter="url(#pip-glow)"/>
      <!-- Body -->
      <path 
        d="M0 -22 C 15 -16, 19 0, 18 13 C 16 24, 8 30, 0 30 C -8 30, -16 24, -18 13 C -19 0, -15 -16, 0 -22 Z" 
        fill="url(#pip-body)" 
        filter="url(#pip-glow)"
      />
      <!-- Inner highlight -->
      <ellipse cx="0" cy="3" rx="10" ry="14" fill="url(#pip-inner)"/>
      <!-- Top shine -->
      <ellipse cx="0" cy="-16" rx="4" ry="2" fill="white" opacity="0.3"/>
      <!-- Cheeks -->
      <ellipse cx="-12" cy="8" rx="4" ry="3" fill="#fca5a5" opacity="0.25" filter="url(#pip-cheek)"/>
      <ellipse cx="12" cy="8" rx="4" ry="3" fill="#fca5a5" opacity="0.25" filter="url(#pip-cheek)"/>
      <!-- Eyes -->
      <g transform="translate(-1, 4)">
        <ellipse cx="-6" cy="0" rx="2.5" ry="3" fill="#09090b" opacity="0.9"/>
        <circle cx="-6.5" cy="0.8" r="0.9" fill="white" opacity="0.9"/>
        <ellipse cx="6" cy="0" rx="2.5" ry="3" fill="#09090b" opacity="0.9"/>
        <circle cx="5.5" cy="0.8" r="0.9" fill="white" opacity="0.9"/>
      </g>
      <!-- Smile -->
      <path d="M-3 12 Q 0 14, 3 12" stroke="#09090b" stroke-width="1.2" stroke-linecap="round" fill="none" opacity="0.35"/>
    </g>
  </g>
</svg>
